<?xml version="1.0" standalone="no"?><!DOCTYPE svg PUBLIC "-//W3C//DTD SVG 1.1//EN" 	"http://www.w3.org/Graphics/SVG/1.1/DTD/svg11.dtd"><svg width="1920" height="1057" version="1.1"	xmlns="http://www.w3.org/2000/svg"><title>Krona (snapshot) - Root</title><defs>	<style type="text/css">	text {font-size: 40px; font-family: sans-serif; dominant-baseline:central}	path {stroke-width:1;}	path.wedge {stroke:none}	path.line {fill:none;stroke:black;}	line {stroke:black;stroke-width:1;}	line.tick {stroke-width:2;}	line.pattern {stroke-width:0.6666666666666666;}	circle {fill:none;stroke:black;stroke-width:1;}	rect {stroke:black;stroke-width:1;}	.highlight {stroke:black;stroke-width:5;}	.searchHighlight {fill:rgb(255, 255, 100);stroke:none;}	</style><pattern id="hiddenPattern" patternUnits="userSpaceOnUse" x="0" y="0" width="24" height="24"><line class="pattern" x1="0" y1="0" x2="12" y2="12"/><line class="pattern" x1="12" y1="24" x2="24" y2="12"/></pattern></defs><path class="wedge" fill="rgb(220,220,220)" d=" M 885.5924275432286,634.1983397675008 L 887.3697101729147,951.2933590700029 A 422.8,422.8 0 0,1 885.0000000000001,951.3 L 885,634.2 A 105.7,105.7 0 0 0 885.5924275432286,634.1983397675008 Z "/><path class="wedge" fill="rgb(207,111,111)" d=" M 885,634.2 L 885,951.3 A 422.8,422.8 0 1,1 1298.3929888804537,439.8090943529991 L 988.3482472201134,506.3272735882498 A 105.7,105.7 0 1 0 885,634.2 Z "/><path class="wedge" fill="rgb(207,111,111)" d=" M 1047.2939912264212,482.3011264490356 L 1291.6452032306122,412.7437099353383 A 422.8,422.8 0 0,1 1298.3929888804537,439.8090943529991 L 1049.9870638517782,493.1030472053184 A 168.74144572564165,168.74144572564165 0 0 0 1047.2939912264212,482.3011264490356 Z "/><path class="wedge" fill="rgb(210,121,121)" d=" M 885,697.2414457256416 L 885,951.3 A 422.8,422.8 0 1,1 1290.5736480807427,409.04349752952805 L 1046.8663285841228,480.82435447446517 A 168.74144572564165,168.74144572564165 0 1 0 885,697.2414457256416 Z "/><path class="wedge" fill="rgb(210,121,121)" d=" M 1059.295304583637,397.61454012669446 L 1223.0872598334875,274.61647407071894 A 422.8,422.8 0 0,1 1290.5736480807427,409.04349752952805 L 1094.086797763824,466.91617252054584 A 217.96755906820044,217.96755906820044 0 0 0 1059.295304583637,397.61454012669446 Z "/><path class="wedge" fill="rgb(213,130,130)" d=" M 885,746.4675590682004 L 885,951.3 A 422.8,422.8 0 1,1 1203.6632624945453,250.6267102862663 L 1049.2815834688865,385.2470135072057 A 217.96755906820044,217.96755906820044 0 1 0 885,746.4675590682004 Z "/><path class="wedge" fill="rgb(213,130,130)" d=" M 709.4925476935739,340.13464094332744 L 596.7794384046354,219.1640210488722 A 422.8,422.8 0 0,1 1203.6632624945453,250.6267102862663 L 1079.0450640804352,359.2933588370083 A 257.4575194233829,257.4575194233829 0 0 0 709.4925476935739,340.13464094332744 Z "/><path class="wedge" fill="rgb(216,140,140)" d=" M 885,785.9575194233829 L 885,951.3 A 422.8,422.8 0 0,1 569.1662575958974,247.41480444708776 L 692.677928406897,357.337518463365 A 257.4575194233829,257.4575194233829 0 0 0 885,785.9575194233829 Z "/><path class="wedge" fill="rgb(216,140,140)" d=" M 657.7880884154573,348.5620034429095 L 553.5493743951282,266.0112901739598 A 422.8,422.8 0 0,1 569.1662575958974,247.41480444708776 L 668.4935800058378,335.81397177741985 A 289.8325988754225,289.8325988754225 0 0 0 657.7880884154573,348.5620034429095 Z "/><path class="wedge" fill="rgb(219,149,149)" d=" M 885,818.3325988754225 L 885,951.3 A 422.8,422.8 0 0,1 542.5805210055108,280.49044291571624 L 650.268856427292,358.4875721956471 A 289.8325988754225,289.8325988754225 0 0 0 885,818.3325988754225 Z "/><path class="wedge" fill="rgb(219,149,149)" d=" M 579.3366652047807,445.0403630461566 L 477.1306998110757,417.1336048738345 A 422.8,422.8 0 0,1 542.5805210055108,280.49044291571624 L 628.3857370490584,342.6379401579045 A 316.8526238467999,316.8526238467999 0 0 0 579.3366652047807,445.0403630461566 Z "/><path class="wedge" fill="rgb(223,159,159)" d=" M 885,845.3526238467998 L 885,951.3 A 422.8,422.8 0 0,1 475.8427122058387,421.9628992091211 L 578.3714280898291,448.65950822464293 A 316.8526238467999,316.8526238467999 0 0 0 885,845.3526238467998 Z "/><path class="wedge" fill="rgb(223,159,159)" d=" M 555.5389404808061,445.5526981088637 L 474.99474783231017,425.2743578614834 A 422.8,422.8 0 0,1 475.8427122058387,421.9628992091211 L 556.2203250227362,442.89176469302765 A 339.74232092944965,339.74232092944965 0 0 0 555.5389404808061,445.5526981088637 Z "/><path class="wedge" fill="rgb(226,168,168)" d=" M 885,868.2423209294496 L 885,951.3 A 422.8,422.8 0 0,1 474.9089117661036,425.6158935931376 L 555.4699666294521,445.82714026154235 A 339.74232092944965,339.74232092944965 0 0 0 885,868.2423209294496 Z "/><path class="wedge" fill="rgb(226,179,168)" d=" M 555.4699666294521,445.82714026154235 L 474.9089117661036,425.6158935931376 A 422.8,422.8 0 0,1 474.99474783231017,425.2743578614834 L 555.5389404808061,445.5526981088637 A 339.74232092944965,339.74232092944965 0 0 0 555.4699666294521,445.82714026154235 Z "/><path class="wedge" fill="url(#hiddenPattern)" d=" M 555.4699666294521,445.82714026154235 L 474.9089117661036,425.6158935931376 A 422.8,422.8 0 0,1 474.99474783231017,425.2743578614834 L 555.5389404808061,445.5526981088637 A 339.74232092944965,339.74232092944965 0 0 0 555.4699666294521,445.82714026154235 Z "/><path class="wedge" fill="rgb(219,163,149)" d=" M 578.3714280898291,448.65950822464293 L 475.8427122058387,421.9628992091211 A 422.8,422.8 0 0,1 477.1306998110757,417.1336048738345 L 579.3366652047807,445.0403630461566 A 316.8526238467999,316.8526238467999 0 0 0 578.3714280898291,448.65950822464293 Z "/><path class="wedge" fill="url(#hiddenPattern)" d=" M 578.3714280898291,448.65950822464293 L 475.8427122058387,421.9628992091211 A 422.8,422.8 0 0,1 477.1306998110757,417.1336048738345 L 579.3366652047807,445.0403630461566 A 316.8526238467999,316.8526238467999 0 0 0 578.3714280898291,448.65950822464293 Z "/><path class="wedge" fill="rgb(216,158,140)" d=" M 650.268856427292,358.4875721956471 L 542.5805210055108,280.49044291571624 A 422.8,422.8 0 0,1 553.5493743951282,266.0112901739598 L 657.7880884154573,348.5620034429095 A 289.8325988754225,289.8325988754225 0 0 0 650.268856427292,358.4875721956471 Z "/><path class="wedge" fill="url(#hiddenPattern)" d=" M 650.268856427292,358.4875721956471 L 542.5805210055108,280.49044291571624 A 422.8,422.8 0 0,1 553.5493743951282,266.0112901739598 L 657.7880884154573,348.5620034429095 A 289.8325988754225,289.8325988754225 0 0 0 650.268856427292,358.4875721956471 Z "/><path class="wedge" fill="rgb(216,159,140)" d=" M 692.677928406897,357.337518463365 L 569.1662575958974,247.41480444708776 A 422.8,422.8 0 0,1 596.7794384046354,219.1640210488722 L 709.4925476935739,340.13464094332744 A 257.4575194233829,257.4575194233829 0 0 0 692.677928406897,357.337518463365 Z "/><path class="wedge" fill="url(#hiddenPattern)" d=" M 692.677928406897,357.337518463365 L 569.1662575958974,247.41480444708776 A 422.8,422.8 0 0,1 596.7794384046354,219.1640210488722 L 709.4925476935739,340.13464094332744 A 257.4575194233829,257.4575194233829 0 0 0 692.677928406897,357.337518463365 Z "/><path class="wedge" fill="rgb(213,167,130)" d=" M 1049.2815834688865,385.2470135072057 L 1203.6632624945453,250.6267102862663 A 422.8,422.8 0 0,1 1223.0872598334875,274.61647407071894 L 1059.295304583637,397.61454012669446 A 217.96755906820044,217.96755906820044 0 0 0 1049.2815834688865,385.2470135072057 Z "/><path class="wedge" fill="url(#hiddenPattern)" d=" M 1049.2815834688865,385.2470135072057 L 1203.6632624945453,250.6267102862663 A 422.8,422.8 0 0,1 1223.0872598334875,274.61647407071894 L 1059.295304583637,397.61454012669446 A 217.96755906820044,217.96755906820044 0 0 0 1049.2815834688865,385.2470135072057 Z "/><path class="wedge" fill="rgb(207,158,111)" d=" M 1046.8663285841228,480.82435447446517 L 1290.5736480807427,409.04349752952805 A 422.8,422.8 0 0,1 1291.6452032306122,412.7437099353383 L 1047.2939912264212,482.3011264490356 A 168.74144572564165,168.74144572564165 0 0 0 1046.8663285841228,480.82435447446517 Z "/><path class="wedge" fill="url(#hiddenPattern)" d=" M 1046.8663285841228,480.82435447446517 L 1290.5736480807427,409.04349752952805 A 422.8,422.8 0 0,1 1291.6452032306122,412.7437099353383 L 1047.2939912264212,482.3011264490356 A 168.74144572564165,168.74144572564165 0 0 0 1046.8663285841228,480.82435447446517 Z "/><path class="wedge" fill="rgb(111,207,111)" d=" M 988.3482472201134,506.3272735882498 L 1298.3929888804537,439.8090943529991 A 422.8,422.8 0 0,1 887.4044905485196,951.2931626992117 L 885.6011226371298,634.1982906748029 A 105.7,105.7 0 0 0 988.3482472201134,506.3272735882498 Z "/><path class="wedge" fill="rgb(101,101,204)" d=" M 885.6011226371298,634.1982906748029 L 887.4044905485196,951.2931626992117 A 422.8,422.8 0 0,1 887.3697101729147,951.2933590700029 L 885.5924275432286,634.1983397675008 A 105.7,105.7 0 0 0 885.6011226371298,634.1982906748029 Z "/><path class="wedge" fill="url(#hiddenPattern)" d=" M 885.6011226371298,634.1982906748029 L 887.4044905485196,951.2931626992117 A 422.8,422.8 0 0,1 887.3697101729147,951.2933590700029 L 885.5924275432286,634.1983397675008 A 105.7,105.7 0 0 0 885.6011226371298,634.1982906748029 Z "/><rect fill="rgb(101,101,204)" x="1824.145" y="854.4783333333332" width="80" height="80"/><rect fill="url(#hiddenPattern)" style="stroke:none" x="1824.145" y="854.4783333333332" width="80" height="80"/><path class="line" d="M 887.3871003627361,951.2932612422509 L 887.7849504231921,1021.7588047826262 A 493.2666666666667,493.2666666666667 0 0,0 1215.7141726249422,894.4783333333332 L 1395.8833333333334,894.4783333333332 L 1475.8181770833332,894.4783333333332"/><text x="1797.4783333333332" y="894.4783333333332" style="font-color:black;font-weight:normal" text-anchor="end">Viruses&#160;&#160;&#160;0.001%</text><circle cx="885" cy="528.5" r="105.7"/><circle cx="885" cy="528.5" r="422.8"/><text x="885" y="528.5" text-anchor="middle" style="font-color:black;font-weight:bold" transform="rotate(360,885,528.5)">Root</text><rect fill="rgb(220,220,220)" x="1824.145" y="961.145" width="80" height="80"/><path class="line" d="M 886.1848597391216,951.2983397642411 L 886.4317055181053,1039.3813272151247 A 510.8833333333334,510.8833333333334 0 0,0 1078.9290701591121,1001.145 L 1355.8833333333334,1001.145 L 1421.7166145833332,1001.145"/><text x="1797.4783333333332" y="1001.145" style="font-color:black;font-weight:normal" text-anchor="end">[other Root]&#160;&#160;&#160;0.09%</text><path class="line" d=" M 988.3482472201134,506.3272735882498 A 105.7,105.7 0 1 0 885,634.2"/><line x1="1298.3929888804537" y1="439.8090943529991" x2="988.3482472201134" y2="506.3272735882498"/><text x="885" y="391.2792771371792" text-anchor="middle" style="font-color:black;font-weight:normal" transform="rotate(308.94555262846995,885,528.5)">cellular organisms</text><path class="line" d=" M 1046.8663285841228,480.82435447446517 A 168.74144572564165,168.74144572564165 0 1 0 885,697.2414457256416"/><line x1="1290.5736480807427" y1="409.04349752952805" x2="1046.8663285841228" y2="480.82435447446517"/><text x="885" y="335.145497603079" text-anchor="middle" style="font-color:black;font-weight:normal" transform="rotate(306.79417030932836,885,528.5)">Bacteria</text><path class="line" d=" M 1049.2815834688865,385.2470135072057 A 217.96755906820044,217.96755906820044 0 1 0 885,746.4675590682004"/><line x1="1203.6632624945453" y1="250.6267102862663" x2="1049.2815834688865" y2="385.2470135072057"/><path class="line" d=" M 692.677928406897,357.337518463365 A 257.4575194233829,257.4575194233829 0 0 0 885,785.9575194233829"/><line x1="569.1662575958974" y1="247.41480444708776" x2="692.677928406897" y2="357.337518463365"/><path class="line" d=" M 650.268856427292,358.4875721956471 A 289.8325988754225,289.8325988754225 0 0 0 885,818.3325988754225"/><line x1="542.5805210055108" y1="280.49044291571624" x2="650.268856427292" y2="358.4875721956471"/><path class="line" d=" M 578.3714280898291,448.65950822464293 A 316.8526238467999,316.8526238467999 0 0 0 885,845.3526238467998"/><line x1="475.8427122058387" y1="421.9628992091211" x2="578.3714280898291" y2="448.65950822464293"/><path class="line" d=" M 555.4699666294521,445.82714026154235 A 339.74232092944965,339.74232092944965 0 0 0 885,868.2423209294496"/><line x1="474.9089117661036" y1="425.6158935931376" x2="555.4699666294521" y2="445.82714026154235"/><text x="503.72883953527514" y="528.5" text-anchor="end" style="font-color:black;font-weight:normal" transform="rotate(-37.95812614016972,885,528.5)">Yersinia&#160;&#160;&#160;29%</text><path class="line" d=" M 555.5389404808061,445.5526981088637 A 339.74232092944965,339.74232092944965 0 0 0 555.4699666294521,445.82714026154235"/><line x1="474.99474783231017" y1="425.2743578614834" x2="555.5389404808061" y2="445.5526981088637"/><path class="line" d=" M 579.3366652047807,445.0403630461566 A 316.8526238467999,316.8526238467999 0 0 0 578.3714280898291,448.65950822464293"/><line x1="477.1306998110757" y1="417.1336048738345" x2="579.3366652047807" y2="445.0403630461566"/><path class="line" d=" M 657.7880884154573,348.5620034429095 A 289.8325988754225,289.8325988754225 0 0 0 650.268856427292,358.4875721956471"/><line x1="553.5493743951282" y1="266.0112901739598" x2="657.7880884154573" y2="348.5620034429095"/><path class="line" d=" M 709.4925476935739,340.13464094332744 A 257.4575194233829,257.4575194233829 0 0 0 692.677928406897,357.337518463365"/><line x1="596.7794384046354" y1="219.1640210488722" x2="709.4925476935739" y2="340.13464094332744"/><path class="line" d=" M 1059.295304583637,397.61454012669446 A 217.96755906820044,217.96755906820044 0 0 0 1049.2815834688865,385.2470135072057"/><line x1="1223.0872598334875" y1="274.61647407071894" x2="1059.295304583637" y2="397.61454012669446"/><path class="line" d=" M 1047.2939912264212,482.3011264490356 A 168.74144572564165,168.74144572564165 0 0 0 1046.8663285841228,480.82435447446517"/><line x1="1291.6452032306122" y1="412.7437099353383" x2="1047.2939912264212" y2="482.3011264490356"/><path class="line" d=" M 885.6011226371298,634.1982906748029 A 105.7,105.7 0 0 0 988.3482472201134,506.3272735882498"/><line x1="887.4044905485196" y1="951.2931626992117" x2="885.6011226371298" y2="634.1982906748029"/><text x="1149.25" y="528.5" text-anchor="start" style="font-color:black;font-weight:normal" transform="rotate(398.7826293752215,885,528.5)">28%&#160;&#160;&#160;No hits</text><path class="line" d=" M 885.5924275432286,634.1983397675008 A 105.7,105.7 0 0 0 885.6011226371298,634.1982906748029"/><line x1="887.3697101729147" y1="951.2933590700029" x2="885.5924275432286" y2="634.1983397675008"/></svg>