<?xml version="1.0" standalone="no"?><!DOCTYPE svg PUBLIC "-//W3C//DTD SVG 1.1//EN" 	"http://www.w3.org/Graphics/SVG/1.1/DTD/svg11.dtd"><svg width="1920" height="1057" version="1.1"	xmlns="http://www.w3.org/2000/svg"><title>Krona (snapshot) - cellular organisms</title><defs>	<style type="text/css">	text {font-size: 25px; font-family: sans-serif; dominant-baseline:central}	path {stroke-width:0.625;}	path.wedge {stroke:none}	path.line {fill:none;stroke:black;}	line {stroke:black;stroke-width:0.625;}	line.tick {stroke-width:1.25;}	line.pattern {stroke-width:0.4166666666666667;}	circle {fill:none;stroke:black;stroke-width:0.625;}	rect {stroke:black;stroke-width:0.625;}	.highlight {stroke:black;stroke-width:3.125;}	.searchHighlight {fill:rgb(255, 255, 100);stroke:none;}	</style><pattern id="hiddenPattern" patternUnits="userSpaceOnUse" x="0" y="0" width="15" height="15"><line class="pattern" x1="0" y1="0" x2="7.5" y2="7.5"/><line class="pattern" x1="7.5" y1="15" x2="15" y2="7.5"/></pattern></defs><path class="wedge" fill="rgb(220,220,220)" d=" M 923.4170270277581,626.9714275023395 L 1038.6681081110323,922.385710009358 A 422.8,422.8 0 0,1 885.0000000000001,951.3 L 885,634.2 A 105.7,105.7 0 0 0 923.4170270277581,626.9714275023395 Z "/><path class="wedge" fill="rgb(207,112,112)" d=" M 885,634.2 L 885,951.3 A 422.8,422.8 0 1,1 1224.1827320206157,276.08186614462255 L 969.7956830051539,465.39546653615565 A 105.7,105.7 0 1 0 885,634.2 Z "/><path class="wedge" fill="rgb(207,112,112)" d=" M 1019.3764565003814,426.13300096832074 L 1221.3267046959736,272.28878301614634 A 422.8,422.8 0 0,1 1224.1827320206157,276.08186614462255 L 1020.5175577754069,427.64849487023014 A 168.92612158085774,168.92612158085774 0 0 0 1019.3764565003814,426.13300096832074 Z "/><path class="wedge" fill="rgb(211,123,123)" d=" M 885,697.4261215808577 L 885,951.3 A 422.8,422.8 0 1,1 1219.576500414557,270.00743652795734 L 1018.67717735839,425.2215085032501 A 168.92612158085774,168.92612158085774 0 1 0 885,697.4261215808577 Z "/><path class="wedge" fill="rgb(211,123,123)" d=" M 885,697.4261215808577 L 885,951.3 A 422.8,422.8 0 1,1 1219.576500414557,270.00743652795734 L 1018.67717735839,425.2215085032501 A 168.92612158085774,168.92612158085774 0 1 0 885,697.4261215808577 Z "/><path class="wedge" fill="rgb(211,123,123)" d=" M 1008.8681797153048,345.7651659916486 L 1122.2316937198282,178.52719606400603 A 422.8,422.8 0 0,1 1219.576500414557,270.00743652795734 L 1059.695806584819,393.53066767697806 A 220.76083326995033,220.76083326995033 0 0 0 1008.8681797153048,345.7651659916486 Z "/><path class="wedge" fill="rgb(214,134,134)" d=" M 885,749.2608332699504 L 885,951.3 A 422.8,422.8 0 1,1 1003.6796757884996,122.69835565299064 L 946.9674175006545,316.6146898099295 A 220.76083326995033,220.76083326995033 0 1 0 885,749.2608332699504 Z "/><path class="wedge" fill="rgb(214,134,134)" d=" M 885,749.2608332699504 L 885,951.3 A 422.8,422.8 0 1,1 1003.6796757884996,122.69835565299064 L 946.9674175006545,316.6146898099295 A 220.76083326995033,220.76083326995033 0 1 0 885,749.2608332699504 Z "/><path class="wedge" fill="rgb(214,134,134)" d=" M 885,749.2608332699504 L 885,951.3 A 422.8,422.8 0 1,1 1003.6796757884996,122.69835565299064 L 946.9674175006545,316.6146898099295 A 220.76083326995033,220.76083326995033 0 1 0 885,749.2608332699504 Z "/><path class="wedge" fill="rgb(214,167,134)" d=" M 946.9674175006545,316.6146898099295 L 1003.6796757884996,122.69835565299064 A 422.8,422.8 0 0,1 1122.2316937198282,178.52719606400603 L 1008.8681797153048,345.7651659916486 A 220.76083326995033,220.76083326995033 0 0 0 946.9674175006545,316.6146898099295 Z "/><path class="wedge" fill="rgb(214,167,134)" d=" M 1033.0881135803845,309.9196066245528 L 1122.1458315091536,178.4690090894349 A 422.8,422.8 0 0,1 1122.2316937198282,178.52719606400603 L 1033.1417311064683,309.95594206947436 A 264.0217372716916,264.0217372716916 0 0 0 1033.0881135803845,309.9196066245528 Z "/><path class="wedge" fill="rgb(218,175,145)" d=" M 959.1107241734171,275.0930578803062 L 1003.6796757884996,122.69835565299064 A 422.8,422.8 0 0,1 1122.0838110364305,178.42699826401616 L 1033.0493842687602,309.893372539616 A 264.0217372716916,264.0217372716916 0 0 0 959.1107241734171,275.0930578803062 Z "/><path class="wedge" fill="rgb(218,175,145)" d=" M 959.1107241734171,275.0930578803062 L 1003.6796757884996,122.69835565299064 A 422.8,422.8 0 0,1 1122.0838110364305,178.42699826401616 L 1033.0493842687602,309.893372539616 A 264.0217372716916,264.0217372716916 0 0 0 959.1107241734171,275.0930578803062 Z "/><path class="wedge" fill="rgb(214,170,134)" d=" M 1033.0493842687602,309.893372539616 L 1122.0838110364305,178.42699826401616 A 422.8,422.8 0 0,1 1122.1458315091536,178.4690090894349 L 1033.0881135803845,309.9196066245528 A 264.0217372716916,264.0217372716916 0 0 0 1033.0493842687602,309.893372539616 Z "/><path class="wedge" fill="url(#hiddenPattern)" d=" M 1033.0493842687602,309.893372539616 L 1122.0838110364305,178.42699826401616 A 422.8,422.8 0 0,1 1122.1458315091536,178.4690090894349 L 1033.0881135803845,309.9196066245528 A 264.0217372716916,264.0217372716916 0 0 0 1033.0493842687602,309.893372539616 Z "/><path class="wedge" fill="rgb(207,160,112)" d=" M 1018.67717735839,425.2215085032501 L 1219.576500414557,270.00743652795734 A 422.8,422.8 0 0,1 1221.3267046959736,272.28878301614634 L 1019.3764565003814,426.13300096832074 A 168.92612158085774,168.92612158085774 0 0 0 1018.67717735839,425.2215085032501 Z "/><path class="wedge" fill="url(#hiddenPattern)" d=" M 1018.67717735839,425.2215085032501 L 1219.576500414557,270.00743652795734 A 422.8,422.8 0 0,1 1221.3267046959736,272.28878301614634 L 1019.3764565003814,426.13300096832074 A 168.92612158085774,168.92612158085774 0 0 0 1018.67717735839,425.2215085032501 Z "/><path class="wedge" fill="rgb(112,207,112)" d=" M 969.7956830051539,465.39546653615565 L 1224.1827320206157,276.08186614462255 A 422.8,422.8 0 0,1 1038.8237741545377,922.3249439850831 L 923.4559435386344,626.9562359962707 A 105.7,105.7 0 0 0 969.7956830051539,465.39546653615565 Z "/><path class="wedge" fill="rgb(112,207,112)" d=" M 961.5460458459808,679.0879723540222 L 1076.5847465200316,905.4020096800431 A 422.8,422.8 0 0,1 1038.8237741545377,922.3249439850831 L 946.4589725043894,685.8493859252569 A 168.92612158085774,168.92612158085774 0 0 0 961.5460458459808,679.0879723540222 Z "/><path class="wedge" fill="rgb(123,211,123)" d=" M 1020.5175577754069,427.64849487023014 L 1224.1827320206157,276.08186614462255 A 422.8,422.8 0 0,1 1261.9613936201204,719.9678764701191 L 1035.6116986990587,604.9993514177388 A 168.92612158085774,168.92612158085774 0 0 0 1020.5175577754069,427.64849487023014 Z "/><path class="wedge" fill="rgb(123,211,123)" d=" M 1082.7981796118727,626.5368586209908 L 1263.8220451117643,716.2596818737729 A 422.8,422.8 0 0,1 1261.9613936201204,719.9678764701191 L 1081.8266588604056,628.4730557094878 A 220.76083326995033,220.76083326995033 0 0 0 1082.7981796118727,626.5368586209908 Z "/><path class="wedge" fill="rgb(134,214,134)" d=" M 1062.1009048052256,396.70237094995514 L 1224.1827320206157,276.08186614462255 A 422.8,422.8 0 0,1 1306.3146226558542,563.9094441689659 L 1104.9852581984887,546.9886906347368 A 220.76083326995033,220.76083326995033 0 0 0 1062.1009048052256,396.70237094995514 Z "/><path class="wedge" fill="rgb(134,214,134)" d=" M 1148.2301398127418,548.9296658349217 L 1306.5323490516253,561.2157256226834 A 422.8,422.8 0 0,1 1306.3146226558542,563.9094441689659 L 1148.0941783622654,550.6117856322502 A 264.0217372716916,264.0217372716916 0 0 0 1148.2301398127418,548.9296658349217 Z "/><path class="wedge" fill="rgb(145,218,145)" d=" M 1096.8060883648097,370.8749427167097 L 1224.1827320206157,276.08186614462255 A 422.8,422.8 0 0,1 1307.7974215981176,529.9765805035846 L 1149.0201271625517,529.4220656333442 A 264.0217372716916,264.0217372716916 0 0 0 1096.8060883648097,370.8749427167097 Z "/><path class="wedge" fill="rgb(145,218,145)" d=" M 1185.668987352708,529.1566690135066 L 1307.7989916316483,529.423404170117 A 422.8,422.8 0 0,1 1307.7974215981176,529.9765805035846 L 1185.667870840131,529.5500544550597 A 300.6697044430918,300.6697044430918 0 0 0 1185.668987352708,529.1566690135066 Z "/><path class="wedge" fill="rgb(156,222,156)" d=" M 1126.2061773624382,348.9955399660049 L 1224.1827320206157,276.08186614462255 A 422.8,422.8 0 0,1 1307.7992494952343,529.296634336798 L 1185.6691707296432,529.0665180004595 A 300.6697044430918,300.6697044430918 0 0 0 1126.2061773624382,348.9955399660049 Z "/><path class="wedge" fill="rgb(156,222,156)" d=" M 1217.1097133912976,527.5868221354358 L 1307.7984017301167,527.3374620612854 A 422.8,422.8 0 0,1 1307.7992494952343,529.296634336798 L 1217.1103793139432,529.1257592275397 A 332.1109688382215,332.1109688382215 0 0 0 1217.1097133912976,527.5868221354358 Z "/><path class="wedge" fill="rgb(167,225,167)" d=" M 1151.4292945708644,330.22461923593835 L 1224.1827320206157,276.08186614462255 A 422.8,422.8 0 0,1 1306.4223865420483,494.3970364747521 L 1216.0288483552392,501.71199560874027 A 332.1109688382215,332.1109688382215 0 0 0 1151.4292945708644,330.22461923593835 Z "/><path class="wedge" fill="rgb(167,225,176)" d=" M 1216.0288483552392,501.71199560874027 L 1306.4223865420483,494.3970364747521 A 422.8,422.8 0 0,1 1307.7977429553628,527.1184965251686 L 1217.109195921284,527.4148238943244 A 332.1109688382215,332.1109688382215 0 0 0 1216.0288483552392,501.71199560874027 Z "/><path class="wedge" fill="rgb(167,225,177)" d=" M 1217.109195921284,527.4148238943244 L 1307.7977429553628,527.1184965251686 A 422.8,422.8 0 0,1 1307.7984017301167,527.3374620612854 L 1217.1097133912976,527.5868221354358 A 332.1109688382215,332.1109688382215 0 0 0 1217.109195921284,527.4148238943244 Z "/><path class="wedge" fill="url(#hiddenPattern)" d=" M 1217.109195921284,527.4148238943244 L 1307.7977429553628,527.1184965251686 A 422.8,422.8 0 0,1 1307.7984017301167,527.3374620612854 L 1217.1097133912976,527.5868221354358 A 332.1109688382215,332.1109688382215 0 0 0 1217.109195921284,527.4148238943244 Z "/><path class="wedge" fill="rgb(145,218,158)" d=" M 1185.6691707296432,529.0665180004595 L 1307.7992494952343,529.296634336798 A 422.8,422.8 0 0,1 1307.7989916316483,529.423404170117 L 1185.668987352708,529.1566690135066 A 300.6697044430918,300.6697044430918 0 0 0 1185.6691707296432,529.0665180004595 Z "/><path class="wedge" fill="url(#hiddenPattern)" d=" M 1185.6691707296432,529.0665180004595 L 1307.7992494952343,529.296634336798 A 422.8,422.8 0 0,1 1307.7989916316483,529.423404170117 L 1185.668987352708,529.1566690135066 A 300.6697044430918,300.6697044430918 0 0 0 1185.6691707296432,529.0665180004595 Z "/><path class="wedge" fill="rgb(134,214,149)" d=" M 1149.0201271625517,529.4220656333442 L 1307.7974215981176,529.9765805035846 A 422.8,422.8 0 0,1 1306.5323490516253,561.2157256226834 L 1148.2301398127418,548.9296658349217 A 264.0217372716916,264.0217372716916 0 0 0 1149.0201271625517,529.4220656333442 Z "/><path class="wedge" fill="url(#hiddenPattern)" d=" M 1149.0201271625517,529.4220656333442 L 1307.7974215981176,529.9765805035846 A 422.8,422.8 0 0,1 1306.5323490516253,561.2157256226834 L 1148.2301398127418,548.9296658349217 A 264.0217372716916,264.0217372716916 0 0 0 1149.0201271625517,529.4220656333442 Z "/><path class="wedge" fill="rgb(134,214,150)" d=" M 1104.9852581984887,546.9886906347368 L 1306.3146226558542,563.9094441689659 A 422.8,422.8 0 0,1 1264.2560491561069,715.3814843115836 L 1083.0247905259494,626.0783164601474 A 220.76083326995033,220.76083326995033 0 0 0 1104.9852581984887,546.9886906347368 Z "/><path class="wedge" fill="rgb(134,214,150)" d=" M 1122.5964834870742,643.632049345691 L 1265.4830399815182,712.8705407228126 A 422.8,422.8 0 0,1 1264.2560491561069,715.3814843115836 L 1121.8302766532483,645.2000334717518 A 264.0217372716916,264.0217372716916 0 0 0 1122.5964834870742,643.632049345691 Z "/><path class="wedge" fill="rgb(145,218,159)" d=" M 1148.0941783622654,550.6117856322502 L 1306.3146226558542,563.9094441689659 A 422.8,422.8 0 0,1 1265.6788200925832,712.4659640610691 L 1122.7187403580454,643.3794073563507 A 264.0217372716916,264.0217372716916 0 0 0 1148.0941783622654,550.6117856322502 Z "/><path class="wedge" fill="rgb(145,218,159)" d=" M 1174.4792698563847,609.7651431630475 L 1292.0640755841257,642.7745744636192 A 422.8,422.8 0 0,1 1265.6788200925832,712.4659640610691 L 1155.7156772114047,659.3254305625121 A 300.6697044430918,300.6697044430918 0 0 0 1174.4792698563847,609.7651431630475 Z "/><path class="wedge" fill="rgb(145,218,162)" d=" M 1184.6133942088186,553.6810480434654 L 1306.3146226558542,563.9094441689659 A 422.8,422.8 0 0,1 1292.0640755841257,642.7745744636192 L 1174.4792698563847,609.7651431630475 A 300.6697044430918,300.6697044430918 0 0 0 1184.6133942088186,553.6810480434654 Z "/><path class="wedge" fill="url(#hiddenPattern)" d=" M 1184.6133942088186,553.6810480434654 L 1306.3146226558542,563.9094441689659 A 422.8,422.8 0 0,1 1292.0640755841257,642.7745744636192 L 1174.4792698563847,609.7651431630475 A 300.6697044430918,300.6697044430918 0 0 0 1184.6133942088186,553.6810480434654 Z "/><path class="wedge" fill="rgb(134,214,158)" d=" M 1122.7187403580454,643.3794073563507 L 1265.6788200925832,712.4659640610691 A 422.8,422.8 0 0,1 1265.4830399815182,712.8705407228126 L 1122.5964834870742,643.632049345691 A 264.0217372716916,264.0217372716916 0 0 0 1122.7187403580454,643.3794073563507 Z "/><path class="wedge" fill="url(#hiddenPattern)" d=" M 1122.7187403580454,643.3794073563507 L 1265.6788200925832,712.4659640610691 A 422.8,422.8 0 0,1 1265.4830399815182,712.8705407228126 L 1122.5964834870742,643.632049345691 A 264.0217372716916,264.0217372716916 0 0 0 1122.7187403580454,643.3794073563507 Z "/><path class="wedge" fill="rgb(123,211,149)" d=" M 1083.0247905259494,626.0783164601474 L 1264.2560491561069,715.3814843115836 A 422.8,422.8 0 0,1 1263.8220451117643,716.2596818737729 L 1082.7981796118727,626.5368586209908 A 220.76083326995033,220.76083326995033 0 0 0 1083.0247905259494,626.0783164601474 Z "/><path class="wedge" fill="url(#hiddenPattern)" d=" M 1083.0247905259494,626.0783164601474 L 1264.2560491561069,715.3814843115836 A 422.8,422.8 0 0,1 1263.8220451117643,716.2596818737729 L 1082.7981796118727,626.5368586209908 A 220.76083326995033,220.76083326995033 0 0 0 1083.0247905259494,626.0783164601474 Z "/><path class="wedge" fill="rgb(123,211,150)" d=" M 1035.6116986990587,604.9993514177388 L 1261.9613936201204,719.9678764701191 A 422.8,422.8 0 0,1 1078.3445487152605,904.5022945170577 L 962.2491597522946,678.7284988606197 A 168.92612158085774,168.92612158085774 0 0 0 1035.6116986990587,604.9993514177388 Z "/><path class="wedge" fill="rgb(123,211,150)" d=" M 993.0181449403107,721.0290260446379 L 1091.8757895333597,897.2305895975394 A 422.8,422.8 0 0,1 1078.3445487152605,904.5022945170577 L 985.9529415387499,724.8258747611139 A 220.76083326995033,220.76083326995033 0 0 0 993.0181449403107,721.0290260446379 Z "/><path class="wedge" fill="rgb(134,214,158)" d=" M 1081.8266588604056,628.4730557094878 L 1261.9613936201204,719.9678764701191 A 422.8,422.8 0 0,1 1136.3594731213295,868.4680209551593 L 1016.2448598310322,706.010935646161 A 220.76083326995033,220.76083326995033 0 0 0 1081.8266588604056,628.4730557094878 Z "/><path class="wedge" fill="rgb(134,214,158)" d=" M 1042.5997977732409,740.3248840287555 L 1137.3776836979046,867.7128310829064 A 422.8,422.8 0 0,1 1136.3594731213295,868.4680209551593 L 1041.963965877934,740.7964699843898 A 264.0217372716916,264.0217372716916 0 0 0 1042.5997977732409,740.3248840287555 Z "/><path class="wedge" fill="rgb(145,218,167)" d=" M 1120.3973557898348,648.0640524535537 L 1261.9613936201204,719.9678764701191 A 422.8,422.8 0 0,1 1142.237923742976,864.0420846755335 L 1045.6348238381822,738.032649299431 A 264.0217372716916,264.0217372716916 0 0 0 1120.3973557898348,648.0640524535537 Z "/><path class="wedge" fill="rgb(145,218,167)" d=" M 1070.564657472179,765.0756307550062 L 1145.9399484545906,861.1712841537659 A 422.8,422.8 0 0,1 1142.237923742976,864.0420846755335 L 1067.9320021366016,767.1171698855524 A 300.6697044430918,300.6697044430918 0 0 0 1070.564657472179,765.0756307550062 Z "/><path class="wedge" fill="rgb(156,222,176)" d=" M 1153.0720690780927,664.6603354508446 L 1261.9613936201204,719.9678764701191 A 422.8,422.8 0 0,1 1185.660514399807,825.7593061299233 L 1098.811513723505,739.8927807877071 A 300.6697044430918,300.6697044430918 0 0 0 1153.0720690780927,664.6603354508446 Z "/><path class="wedge" fill="rgb(156,222,176)" d=" M 1121.4212154606432,761.7438734517464 L 1185.9803929284012,825.4354190268739 A 422.8,422.8 0 0,1 1185.660514399807,825.7593061299233 L 1121.1699496894937,761.9982879730045 A 332.1109688382215,332.1109688382215 0 0 0 1121.4212154606432,761.7438734517464 Z "/><path class="wedge" fill="rgb(167,225,185)" d=" M 1181.104573438468,678.8987274264148 L 1261.9613936201204,719.9678764701191 A 422.8,422.8 0 0,1 1186.0936838690905,825.3205409572261 L 1121.5102059149308,761.6536363017723 A 332.1109688382215,332.1109688382215 0 0 0 1181.104573438468,678.8987274264148 Z "/><path class="wedge" fill="rgb(167,225,189)" d=" M 1121.5102059149308,761.6536363017723 L 1186.0936838690905,825.3205409572261 A 422.8,422.8 0 0,1 1185.9803929284012,825.4354190268739 L 1121.4212154606432,761.7438734517464 A 332.1109688382215,332.1109688382215 0 0 0 1121.5102059149308,761.6536363017723 Z "/><path class="wedge" fill="url(#hiddenPattern)" d=" M 1121.5102059149308,761.6536363017723 L 1186.0936838690905,825.3205409572261 A 422.8,422.8 0 0,1 1185.9803929284012,825.4354190268739 L 1121.4212154606432,761.7438734517464 A 332.1109688382215,332.1109688382215 0 0 0 1121.5102059149308,761.6536363017723 Z "/><path class="wedge" fill="rgb(156,222,181)" d=" M 1098.811513723505,739.8927807877071 L 1185.660514399807,825.7593061299233 A 422.8,422.8 0 0,1 1146.152989451714,861.0040692990583 L 1070.716159301979,764.9567176969565 A 300.6697044430918,300.6697044430918 0 0 0 1098.811513723505,739.8927807877071 Z "/><path class="wedge" fill="rgb(156,222,181)" d=" M 1090.8264918526424,789.1398873432389 L 1147.0312152282095,860.3124202708931 A 422.8,422.8 0 0,1 1146.152989451714,861.0040692990583 L 1090.1366422464678,789.68318022129 A 332.1109688382215,332.1109688382215 0 0 0 1090.8264918526424,789.1398873432389 Z "/><path class="wedge" fill="rgb(167,225,189)" d=" M 1121.1699496894937,761.9982879730045 L 1185.660514399807,825.7593061299233 A 422.8,422.8 0 0,1 1156.1629318713904,852.8925159107587 L 1097.999489159934,783.3115249361169 A 332.1109688382215,332.1109688382215 0 0 0 1121.1699496894937,761.9982879730045 Z "/><path class="wedge" fill="rgb(167,225,191)" d=" M 1097.999489159934,783.3115249361169 L 1156.1629318713904,852.8925159107587 A 422.8,422.8 0 0,1 1147.0312152282095,860.3124202708931 L 1090.8264918526424,789.1398873432389 A 332.1109688382215,332.1109688382215 0 0 0 1097.999489159934,783.3115249361169 Z "/><path class="wedge" fill="url(#hiddenPattern)" d=" M 1097.999489159934,783.3115249361169 L 1156.1629318713904,852.8925159107587 A 422.8,422.8 0 0,1 1147.0312152282095,860.3124202708931 L 1090.8264918526424,789.1398873432389 A 332.1109688382215,332.1109688382215 0 0 0 1097.999489159934,783.3115249361169 Z "/><path class="wedge" fill="rgb(145,218,176)" d=" M 1070.716159301979,764.9567176969565 L 1146.152989451714,861.0040692990583 A 422.8,422.8 0 0,1 1145.9399484545906,861.1712841537659 L 1070.564657472179,765.0756307550062 A 300.6697044430918,300.6697044430918 0 0 0 1070.716159301979,764.9567176969565 Z "/><path class="wedge" fill="url(#hiddenPattern)" d=" M 1070.716159301979,764.9567176969565 L 1146.152989451714,861.0040692990583 A 422.8,422.8 0 0,1 1145.9399484545906,861.1712841537659 L 1070.564657472179,765.0756307550062 A 300.6697044430918,300.6697044430918 0 0 0 1070.716159301979,764.9567176969565 Z "/><path class="wedge" fill="rgb(134,214,168)" d=" M 1045.6348238381822,738.032649299431 L 1142.237923742976,864.0420846755335 A 422.8,422.8 0 0,1 1137.3776836979046,867.7128310829064 L 1042.5997977732409,740.3248840287555 A 264.0217372716916,264.0217372716916 0 0 0 1045.6348238381822,738.032649299431 Z "/><path class="wedge" fill="url(#hiddenPattern)" d=" M 1045.6348238381822,738.032649299431 L 1142.237923742976,864.0420846755335 A 422.8,422.8 0 0,1 1137.3776836979046,867.7128310829064 L 1042.5997977732409,740.3248840287555 A 264.0217372716916,264.0217372716916 0 0 0 1045.6348238381822,738.032649299431 Z "/><path class="wedge" fill="rgb(134,214,168)" d=" M 1016.2448598310322,706.010935646161 L 1136.3594731213295,868.4680209551593 A 422.8,422.8 0 0,1 1102.7233715027892,890.9311983003926 L 998.6821024486724,717.7398612578554 A 220.76083326995033,220.76083326995033 0 0 0 1016.2448598310322,706.010935646161 Z "/><path class="wedge" fill="rgb(134,214,168)" d=" M 1023.97936622721,752.9821006562554 L 1107.5592356450443,887.9818863713353 A 422.8,422.8 0 0,1 1102.7233715027892,890.9311983003926 L 1020.9595619413819,754.8238283271775 A 264.0217372716916,264.0217372716916 0 0 0 1023.97936622721,752.9821006562554 Z "/><path class="wedge" fill="rgb(134,214,170)" d=" M 1041.963965877934,740.7964699843898 L 1136.3594731213295,868.4680209551593 A 422.8,422.8 0 0,1 1107.5592356450443,887.9818863713353 L 1023.97936622721,752.9821006562554 A 264.0217372716916,264.0217372716916 0 0 0 1041.963965877934,740.7964699843898 Z "/><path class="wedge" fill="url(#hiddenPattern)" d=" M 1041.963965877934,740.7964699843898 L 1136.3594731213295,868.4680209551593 A 422.8,422.8 0 0,1 1107.5592356450443,887.9818863713353 L 1023.97936622721,752.9821006562554 A 264.0217372716916,264.0217372716916 0 0 0 1041.963965877934,740.7964699843898 Z "/><path class="wedge" fill="rgb(123,211,163)" d=" M 998.6821024486724,717.7398612578554 L 1102.7233715027892,890.9311983003926 A 422.8,422.8 0 0,1 1091.8757895333597,897.2305895975394 L 993.0181449403107,721.0290260446379 A 220.76083326995033,220.76083326995033 0 0 0 998.6821024486724,717.7398612578554 Z "/><path class="wedge" fill="url(#hiddenPattern)" d=" M 998.6821024486724,717.7398612578554 L 1102.7233715027892,890.9311983003926 A 422.8,422.8 0 0,1 1091.8757895333597,897.2305895975394 L 993.0181449403107,721.0290260446379 A 220.76083326995033,220.76083326995033 0 0 0 998.6821024486724,717.7398612578554 Z "/><path class="wedge" fill="rgb(112,207,157)" d=" M 962.2491597522946,678.7284988606197 L 1078.3445487152605,904.5022945170577 A 422.8,422.8 0 0,1 1076.5847465200316,905.4020096800431 L 961.5460458459808,679.0879723540222 A 168.92612158085774,168.92612158085774 0 0 0 962.2491597522946,678.7284988606197 Z "/><path class="wedge" fill="url(#hiddenPattern)" d=" M 962.2491597522946,678.7284988606197 L 1078.3445487152605,904.5022945170577 A 422.8,422.8 0 0,1 1076.5847465200316,905.4020096800431 L 961.5460458459808,679.0879723540222 A 168.92612158085774,168.92612158085774 0 0 0 962.2491597522946,678.7284988606197 Z "/><path class="wedge" fill="rgb(101,101,204)" d=" M 923.4559435386344,626.9562359962707 L 1038.8237741545377,922.3249439850831 A 422.8,422.8 0 0,1 1038.6681081110323,922.385710009358 L 923.4170270277581,626.9714275023395 A 105.7,105.7 0 0 0 923.4559435386344,626.9562359962707 Z "/><path class="wedge" fill="url(#hiddenPattern)" d=" M 923.4559435386344,626.9562359962707 L 1038.8237741545377,922.3249439850831 A 422.8,422.8 0 0,1 1038.6681081110323,922.385710009358 L 923.4170270277581,626.9714275023395 A 105.7,105.7 0 0 0 923.4559435386344,626.9562359962707 Z "/><rect fill="rgb(101,101,204)" x="1854.145" y="991.145" width="50" height="50"/><rect fill="url(#hiddenPattern)" style="stroke:none" x="1854.145" y="991.145" width="50" height="50"/><path class="line" d="M 1038.7459441349044,922.3553346878355 L 1075.357814975614,1016.145 L 1387.075,1016.145 L 1626.2356575520832,1016.145"/><text x="1837.4783333333332" y="1016.145" style="font-color:black;font-weight:normal" text-anchor="end">Archaea&#160;&#160;&#160;0.006%</text><circle cx="885" cy="528.5" r="105.7"/><circle cx="885" cy="528.5" r="422.8"/><text x="885" y="528.5" text-anchor="middle" style="font-color:black;font-weight:bold" transform="rotate(360,885,528.5)">cellular organisms</text><text x="1149.25" y="528.5" text-anchor="start" style="font-color:black;font-weight:normal" transform="rotate(439.34378260426314,885,528.5)">6%&#160;&#160;&#160;[other cellular organisms]</text><path class="line" d=" M 969.7956830051539,465.39546653615565 A 105.7,105.7 0 1 0 885,634.2"/><line x1="1224.1827320206157" y1="276.08186614462255" x2="969.7956830051539" y2="465.39546653615565"/><text x="885" y="403.83216352574266" text-anchor="middle" style="font-color:black;font-weight:normal" transform="rotate(296.671778509005,885,528.5)">Eukaryota</text><line x1="1219.576500414557" y1="270.00743652795734" x2="1018.67717735839" y2="425.2215085032501"/><path class="line" d=" M 1018.67717735839,425.2215085032501 A 168.92612158085774,168.92612158085774 0 1 0 885,697.4261215808577"/><text x="885" y="333.656522574596" text-anchor="middle" style="font-color:black;font-weight:normal" transform="rotate(296.15522937133017,885,528.5)">Apicomplexa</text><line x1="1003.6796757884996" y1="122.69835565299064" x2="946.9674175006545" y2="316.6146898099295"/><path class="line" d=" M 946.9674175006545,316.6146898099295 A 220.76083326995033,220.76083326995033 0 1 0 885,749.2608332699504"/><text x="563.2195833650248" y="528.5" text-anchor="end" style="font-color:black;font-weight:normal" transform="rotate(8.150973599901066,885,528.5)">Eucoccidiorida&#160;&#160;&#160;55%</text><path class="line" d=" M 1008.8681797153048,345.7651659916486 A 220.76083326995033,220.76083326995033 0 0 0 946.9674175006545,316.6146898099295"/><line x1="1122.2316937198282" y1="178.52719606400603" x2="1008.8681797153048" y2="345.7651659916486"/><text x="885" y="286.10871472917904" text-anchor="middle" style="font-color:black;font-weight:normal" transform="rotate(385.2168122493335,885,528.5)">Aconoidasida</text><line x1="1122.0838110364305" y1="178.42699826401616" x2="1033.0493842687602" y2="309.893372539616"/><path class="line" d=" M 1033.0493842687602,309.893372539616 A 264.0217372716916,264.0217372716916 0 0 0 959.1107241734171,275.0930578803062"/><text x="1228.4108686358459" y="528.5" text-anchor="start" style="font-color:black;font-weight:normal" transform="rotate(295.20470867921415,885,528.5)">5%&#160;&#160;&#160;Plasmodiidae</text><path class="line" d=" M 1033.0881135803845,309.9196066245528 A 264.0217372716916,264.0217372716916 0 0 0 1033.0493842687602,309.893372539616"/><line x1="1122.1458315091536" y1="178.4690090894349" x2="1033.0881135803845" y2="309.9196066245528"/><path class="line" d=" M 1019.3764565003814,426.13300096832074 A 168.92612158085774,168.92612158085774 0 0 0 1018.67717735839,425.2215085032501"/><line x1="1221.3267046959736" y1="272.28878301614634" x2="1019.3764565003814" y2="426.13300096832074"/><path class="line" d=" M 923.4559435386344,626.9562359962707 A 105.7,105.7 0 0 0 969.7956830051539,465.39546653615565"/><line x1="1038.8237741545377" y1="922.3249439850831" x2="923.4559435386344" y2="626.9562359962707"/><text x="885" y="678.4582851066004" text-anchor="middle" style="font-color:black;font-weight:normal" transform="rotate(286.00423841864034,885,528.5)">Bacteria</text><path class="line" d=" M 1035.6116986990587,604.9993514177388 A 168.92612158085774,168.92612158085774 0 0 0 1020.5175577754069,427.64849487023014"/><line x1="1261.9613936201204" y1="719.9678764701191" x2="1035.6116986990587" y2="604.9993514177388"/><text x="885" y="333.656522574596" text-anchor="middle" style="font-color:black;font-weight:normal" transform="rotate(445.1353409063795,885,528.5)">Terrabacteria group</text><path class="line" d=" M 1104.9852581984887,546.9886906347368 A 220.76083326995033,220.76083326995033 0 0 0 1062.1009048052256,396.70237094995514"/><line x1="1306.3146226558542" y1="563.9094441689659" x2="1104.9852581984887" y2="546.9886906347368"/><text x="885" y="286.10871472917904" text-anchor="middle" style="font-color:black;font-weight:normal" transform="rotate(434.0738491305168,885,528.5)">Firmicutes</text><path class="line" d=" M 1149.0201271625517,529.4220656333442 A 264.0217372716916,264.0217372716916 0 0 0 1096.8060883648097,370.8749427167097"/><line x1="1307.7974215981176" y1="529.9765805035846" x2="1149.0201271625517" y2="529.4220656333442"/><text x="885" y="246.1542791426083" text-anchor="middle" style="font-color:black;font-weight:normal" transform="rotate(431.7718281813626,885,528.5)">Clostridia</text><path class="line" d=" M 1185.6691707296432,529.0665180004595 A 300.6697044430918,300.6697044430918 0 0 0 1126.2061773624382,348.9955399660049"/><line x1="1307.7992494952343" y1="529.296634336798" x2="1185.6691707296432" y2="529.0665180004595"/><text x="885" y="212.10966335934336" text-anchor="middle" style="font-color:black;font-weight:normal" transform="rotate(431.7257565273599,885,528.5)">Clostridiales</text><path class="line" d=" M 1216.0288483552392,501.71199560874027 A 332.1109688382215,332.1109688382215 0 0 0 1151.4292945708644,330.22461923593835"/><line x1="1306.4223865420483" y1="494.3970364747521" x2="1216.0288483552392" y2="501.71199560874027"/><text x="1262.4554844191107" y="528.5" text-anchor="start" style="font-color:black;font-weight:normal" transform="rotate(339.3585324746595,885,528.5)">9%&#160;&#160;&#160;Clostridiaceae</text><path class="line" d=" M 1217.109195921284,527.4148238943244 A 332.1109688382215,332.1109688382215 0 0 0 1216.0288483552392,501.71199560874027"/><line x1="1307.7977429553628" y1="527.1184965251686" x2="1217.109195921284" y2="527.4148238943244"/><text x="1262.4554844191107" y="528.5" text-anchor="start" style="font-color:black;font-weight:normal" transform="rotate(357.5931465161023,885,528.5)">1%&#160;&#160;&#160;Peptostreptococcaceae</text><path class="line" d=" M 1217.1097133912976,527.5868221354358 A 332.1109688382215,332.1109688382215 0 0 0 1217.109195921284,527.4148238943244"/><line x1="1307.7984017301167" y1="527.3374620612854" x2="1217.1097133912976" y2="527.5868221354358"/><path class="line" d=" M 1185.668987352708,529.1566690135066 A 300.6697044430918,300.6697044430918 0 0 0 1185.6691707296432,529.0665180004595"/><line x1="1307.7989916316483" y1="529.423404170117" x2="1185.668987352708" y2="529.1566690135066"/><line x1="1289.05" y1="528.5" x2="1326.55" y2="528.5" class="tick" transform="rotate(362.3190049910959,885,528.5)"/><text x="1332.8" y="528.5" text-anchor="start" style="font-color:black;font-weight:normal" transform="rotate(362.3190049910959,885,528.5)">6 more</text><path class="line" d=" M 1148.2301398127418,548.9296658349217 A 264.0217372716916,264.0217372716916 0 0 0 1149.0201271625517,529.4220656333442"/><line x1="1306.5323490516253" y1="561.2157256226834" x2="1148.2301398127418" y2="548.9296658349217"/><path class="line" d=" M 1083.0247905259494,626.0783164601474 A 220.76083326995033,220.76083326995033 0 0 0 1104.9852581984887,546.9886906347368"/><line x1="1264.2560491561069" y1="715.3814843115836" x2="1083.0247905259494" y2="626.0783164601474"/><text x="885" y="770.891285270821" text-anchor="middle" style="font-color:black;font-weight:normal" transform="rotate(285.5181434251368,885,528.5)">Act...ria</text><path class="line" d=" M 1122.7187403580454,643.3794073563507 A 264.0217372716916,264.0217372716916 0 0 0 1148.0941783622654,550.6117856322502"/><line x1="1265.6788200925832" y1="712.4659640610691" x2="1122.7187403580454" y2="643.3794073563507"/><text x="885" y="810.8457208573917" text-anchor="middle" style="font-color:black;font-weight:normal" transform="rotate(285.2983269742593,885,528.5)">Acti...eria</text><line x1="1289.05" y1="528.5" x2="1326.55" y2="528.5" class="tick" transform="rotate(370.24254860407655,885,528.5)"/><text x="1332.8" y="528.5" text-anchor="start" style="font-color:black;font-weight:normal" transform="rotate(370.24254860407655,885,528.5)">20 more</text><path class="line" d=" M 1174.4792698563847,609.7651431630475 A 300.6697044430918,300.6697044430918 0 0 0 1184.6133942088186,553.6810480434654"/><line x1="1292.0640755841257" y1="642.7745744636192" x2="1174.4792698563847" y2="609.7651431630475"/><path class="line" d=" M 1122.5964834870742,643.632049345691 A 264.0217372716916,264.0217372716916 0 0 0 1122.7187403580454,643.3794073563507"/><line x1="1265.4830399815182" y1="712.8705407228126" x2="1122.5964834870742" y2="643.632049345691"/><path class="line" d=" M 1082.7981796118727,626.5368586209908 A 220.76083326995033,220.76083326995033 0 0 0 1083.0247905259494,626.0783164601474"/><line x1="1263.8220451117643" y1="716.2596818737729" x2="1082.7981796118727" y2="626.5368586209908"/><path class="line" d=" M 962.2491597522946,678.7284988606197 A 168.92612158085774,168.92612158085774 0 0 0 1035.6116986990587,604.9993514177388"/><line x1="1078.3445487152605" y1="904.5022945170577" x2="962.2491597522946" y2="678.7284988606197"/><text x="885" y="723.343477425404" text-anchor="middle" style="font-color:black;font-weight:normal" transform="rotate(314.85719739447876,885,528.5)">Proteo...cteria</text><path class="line" d=" M 1016.2448598310322,706.010935646161 A 220.76083326995033,220.76083326995033 0 0 0 1081.8266588604056,628.4730557094878"/><line x1="1136.3594731213295" y1="868.4680209551593" x2="1016.2448598310322" y2="706.010935646161"/><text x="885" y="770.891285270821" text-anchor="middle" style="font-color:black;font-weight:normal" transform="rotate(310.22465354072807,885,528.5)">G...a</text><path class="line" d=" M 1045.6348238381822,738.032649299431 A 264.0217372716916,264.0217372716916 0 0 0 1120.3973557898348,648.0640524535537"/><line x1="1142.237923742976" y1="864.0420846755335" x2="1045.6348238381822" y2="738.032649299431"/><text x="885" y="810.8457208573917" text-anchor="middle" style="font-color:black;font-weight:normal" transform="rotate(309.72606453935936,885,528.5)">Ente...ales</text><path class="line" d=" M 1098.811513723505,739.8927807877071 A 300.6697044430918,300.6697044430918 0 0 0 1153.0720690780927,664.6603354508446"/><line x1="1185.660514399807" y1="825.7593061299233" x2="1098.811513723505" y2="739.8927807877071"/><text x="885" y="844.8903366406566" text-anchor="middle" style="font-color:black;font-weight:normal" transform="rotate(305.80060344322715,885,528.5)">Y...e</text><path class="line" d=" M 1121.5102059149308,761.6536363017723 A 332.1109688382215,332.1109688382215 0 0 0 1181.104573438468,678.8987274264148"/><line x1="1186.0936838690905" y1="825.3205409572261" x2="1121.5102059149308" y2="761.6536363017723"/><text x="1262.4554844191107" y="528.5" text-anchor="start" style="font-color:black;font-weight:normal" transform="rotate(395.758826604428,885,528.5)">5%&#160;&#160;&#160;Yersinia</text><path class="line" d=" M 1121.4212154606432,761.7438734517464 A 332.1109688382215,332.1109688382215 0 0 0 1121.5102059149308,761.6536363017723"/><line x1="1185.9803929284012" y1="825.4354190268739" x2="1121.4212154606432" y2="761.7438734517464"/><path class="line" d=" M 1070.716159301979,764.9567176969565 A 300.6697044430918,300.6697044430918 0 0 0 1098.811513723505,739.8927807877071"/><line x1="1146.152989451714" y1="861.0040692990583" x2="1070.716159301979" y2="764.9567176969565"/><text x="885" y="844.8903366406566" text-anchor="middle" style="font-color:black;font-weight:normal" transform="rotate(318.2637667264615,885,528.5)">E...e</text><path class="line" d=" M 1097.999489159934,783.3115249361169 A 332.1109688382215,332.1109688382215 0 0 0 1121.1699496894937,761.9982879730045"/><line x1="1156.1629318713904" y1="852.8925159107587" x2="1097.999489159934" y2="783.3115249361169"/><text x="1262.4554844191107" y="528.5" text-anchor="start" style="font-color:black;font-weight:normal" transform="rotate(407.39074792688405,885,528.5)">2%&#160;&#160;&#160;Klebsiella</text><path class="line" d=" M 1090.8264918526424,789.1398873432389 A 332.1109688382215,332.1109688382215 0 0 0 1097.999489159934,783.3115249361169"/><line x1="1147.0312152282095" y1="860.3124202708931" x2="1090.8264918526424" y2="789.1398873432389"/><path class="line" d=" M 1070.564657472179,765.0756307550062 A 300.6697044430918,300.6697044430918 0 0 0 1070.716159301979,764.9567176969565"/><line x1="1145.9399484545906" y1="861.1712841537659" x2="1070.564657472179" y2="765.0756307550062"/><path class="line" d=" M 1042.5997977732409,740.3248840287555 A 264.0217372716916,264.0217372716916 0 0 0 1045.6348238381822,738.032649299431"/><line x1="1137.3776836979046" y1="867.7128310829064" x2="1042.5997977732409" y2="740.3248840287555"/><path class="line" d=" M 998.6821024486724,717.7398612578554 A 220.76083326995033,220.76083326995033 0 0 0 1016.2448598310322,706.010935646161"/><line x1="1102.7233715027892" y1="890.9311983003926" x2="998.6821024486724" y2="717.7398612578554"/><text x="885" y="770.891285270821" text-anchor="middle" style="font-color:black;font-weight:normal" transform="rotate(326.26383613761635,885,528.5)">A...a</text><line x1="1289.05" y1="528.5" x2="1326.55" y2="528.5" class="tick" transform="rotate(415.8800358335087,885,528.5)"/><text x="1332.8" y="528.5" text-anchor="start" style="font-color:black;font-weight:normal" transform="rotate(415.8800358335087,885,528.5)">10 more</text><path class="line" d=" M 1023.97936622721,752.9821006562554 A 264.0217372716916,264.0217372716916 0 0 0 1041.963965877934,740.7964699843898"/><line x1="1107.5592356450443" y1="887.9818863713353" x2="1023.97936622721" y2="752.9821006562554"/><path class="line" d=" M 993.0181449403107,721.0290260446379 A 220.76083326995033,220.76083326995033 0 0 0 998.6821024486724,717.7398612578554"/><line x1="1091.8757895333597" y1="897.2305895975394" x2="993.0181449403107" y2="721.0290260446379"/><path class="line" d=" M 961.5460458459808,679.0879723540222 A 168.92612158085774,168.92612158085774 0 0 0 962.2491597522946,678.7284988606197"/><line x1="1076.5847465200316" y1="905.4020096800431" x2="961.5460458459808" y2="679.0879723540222"/><path class="line" d=" M 923.4170270277581,626.9714275023395 A 105.7,105.7 0 0 0 923.4559435386344,626.9562359962707"/><line x1="1038.6681081110323" y1="922.385710009358" x2="923.4170270277581" y2="626.9714275023395"/></svg>